<svg xmlns="http://www.w3.org/2000/svg" width="218" height="178"><polygon fill="#fff" points="94.953,151.078 94.846,151.053 84.519,176.635 81.645,176.635 71.327,151.078 71.216,151.105 71.657,164.01 71.657,173.258 75.226,173.871 75.226,176.635 63.765,176.635 63.765,173.871 67.334,173.258 67.334,148.117 63.765,147.505 63.765,144.721 67.334,144.721 72.859,144.721 83.028,170.654 83.163,170.654 93.311,144.721 102.433,144.721 102.433,147.505 98.856,148.117 98.856,173.258 102.433,173.871 102.433,176.635 90.964,176.635 90.964,173.871 94.536,173.258 94.536,164.01"/><path fill="#fff" d="M120.715 176.635c-.136-.647-.237-1.221-.31-1.734-.076-.511-.128-1.02-.155-1.532-.834 1.068-1.874 1.952-3.119 2.664-1.253.709-2.59 1.06-4.009 1.06-2.464 0-4.34-.601-5.63-1.812-1.283-1.2-1.923-2.895-1.923-5.091 0-2.252.909-3.984 2.726-5.207 1.822-1.218 4.313-1.83 7.486-1.83h4.45v-2.757c0-1.394-.44-2.49-1.314-3.3-.885-.811-2.105-1.221-3.669-1.221-1.072 0-2.032.141-2.855.417-.819.28-1.491.66-2.003 1.145l-.46 2.495h-3.332v-4.603c1.078-.857 2.388-1.552 3.921-2.07 1.536-.517 3.201-.774 4.997-.774 2.694 0 4.868.686 6.53 2.06 1.665 1.368 2.503 3.334 2.503 5.892v11.422l.01.896c.007.294.02.585.055.877l1.751.242v2.762h-5.65zm-6.953-3.157c1.427 0 2.746-.341 3.927-1.032 1.182-.685 2.025-1.512 2.543-2.474v-3.902h-4.604c-1.772 0-3.169.407-4.198 1.228-1.027.821-1.55 1.809-1.55 2.982 0 1.034.327 1.83.964 2.376.647.547 1.621.822 2.918.822"/><path fill="#fff" d="M129.284 173.871l3.574-.613v-16.943l-3.574-.612v-2.784h7.887v20.34l3.582.613v2.764h-11.469v-2.765zm7.887-27.026h-4.313v-4.403h4.313v4.403z"/><polygon fill="#fff" points="142.771,145.225 142.771,142.441 150.666,142.441 150.666,173.258 154.235,173.871 154.235,176.635 142.771,176.635 142.771,173.871 146.345,173.258 146.345,145.84"/><path fill="#fff" d="M23.242 122.52c-1.607 2.425-4.365 4.034-7.487 4.034-4.956 0-8.979-4.029-8.979-8.972 0-4.948 4.022-8.975 8.979-8.975 3.122 0 5.88 1.606 7.49 4.035l5.442-4.037c-2.853-4.096-7.584-6.777-12.933-6.777-8.684 0-15.754 7.068-15.754 15.754 0 8.685 7.07 15.749 15.755 15.749 5.349 0 10.08-2.678 12.933-6.771l-5.446-4.04z"/><rect x="179.527" y="111.253" fill="#fff" width="6.837" height="21.451"/><rect x="179.527" y="102.33" fill="#fff" width="6.837" height="6.604"/><path fill="#fff" d="M160.815 102.456h-11.071v30.248h11.071c8.69 0 15.758-6.438 15.758-15.123 0-8.684-7.067-15.125-15.758-15.125m0 23.709h-4.469v-17.168h4.469c4.953 0 8.978 3.87 8.978 8.818 0 4.952-4.024 8.35-8.978 8.35"/><polygon fill="#fff" points="31.305,132.704 37.91,132.704 37.91,121.263 50.631,121.263 50.631,132.704 57.225,132.704 57.225,102.456 50.631,102.456 50.631,114.656 37.91,114.656 37.91,102.456 31.305,102.456"/><path fill="#fff" d="M212.558 122.52c-1.603 2.425-4.356 4.034-7.484 4.034-4.952 0-8.983-4.029-8.983-8.972 0-4.948 4.031-8.975 8.983-8.975 3.128 0 5.882 1.606 7.484 4.035l5.442-4.037c-2.848-4.096-7.576-6.777-12.927-6.777-8.69 0-15.757 7.068-15.757 15.754 0 8.685 7.066 15.749 15.757 15.749 5.351 0 10.079-2.678 12.927-6.771l-5.442-4.04z"/><path fill="#fff" d="M71.854 102.252c-4.471.045-7.156 1.037-8.947 1.665l1.104 6.463c1.621-.879 4.437-2.042 7.843-1.997 4.594.057 6.149 1.717 6.149 6.213-13.829-1.337-17.807 3.544-17.807 10.043 0 5.684 5.069 8.692 9.65 8.692 4.688 0 8.156-2.712 8.156-2.712v2.235h6.536v-20.583c.001-6.381-4.296-10.11-12.684-10.019m6.149 22.582s-.907 1.618-5.634 2.692c-2.613.603-5.404.188-5.404-2.888 0-4.336 4.502-5.366 11.038-4.336v4.532z"/><path fill="#fff" d="M102.868 101.828c-8.683 0-15.745 7.068-15.745 15.753 0 8.686 7.063 15.75 15.745 15.75 8.686 0 15.749-7.064 15.749-15.75 0-8.685-7.063-15.753-15.749-15.753m0 24.726c-4.948 0-8.98-4.029-8.98-8.973 0-4.947 4.032-8.974 8.98-8.974 4.947 0 8.979 4.026 8.979 8.974 0 4.943-4.032 8.973-8.979 8.973"/><path fill="#fff" d="M139.614 122.727c2.734-1.142 5.659-4.238 5.659-9.753 0-8.947-6.502-10.481-9.827-10.518h-14.163v30.248h6.447v-9.393h4.075l7.015 9.393h8.303l-7.509-9.977zm-5.286-5.934h-6.598v-7.796h6.598c.01 0 4.117.058 4.117 3.977 0 3.946-3.038 3.758-4.117 3.819"/><path fill="#652A78" d="M147.853 47.084v14.84h-77.711v-14.84h-24.006v26.85c0 6.632 5.373 12.008 11.998 12.008h101.72c6.637 0 12.015-5.376 12.015-12.008v-26.85h-24.016z"/><polygon fill="#fff" points="137.44,15.206 136.88,15.092 81.117,15.092 80.771,15.167 109.004,40.314"/><path fill="#fff" d="M140.597 17.742l-20.082 17.727 19.821 17.347c.313-.569.536-1.181.536-1.872v-31.868c0-.472-.117-.916-.275-1.334"/><path fill="#fff" d="M77.442 17.535c-.197.477-.316.993-.316 1.541v31.867c0 .58.143 1.126.374 1.622l20.008-17.153-20.066-17.877z"/><polygon fill="#fff" points="108.991,45.642 100.512,38.081 80.901,54.885 81.117,54.93 136.704,54.93 117.501,38.129"/></svg>